<svg xmlns="http://www.w3.org/2000/svg" width="169.484" height="31.23" viewBox="0 0 169.484 31.23">
  <g id="Group_1857" data-name="Group 1857" transform="translate(-514.463 -547.386)">
    <g id="Group_1854" data-name="Group 1854" transform="translate(514.463 547.386)">
      <path id="Path_1727" data-name="Path 1727" d="M568.2,552.306a6.638,6.638,0,0,0-12.162-1.6l-4.616,8-4.209-7.291c-.006-.01-.008-.023-.013-.033l0,0a6.6,6.6,0,0,0-11.472.012l-.023-.013-4.226,7.321-4.617-8a6.638,6.638,0,1,0-11.5,6.638l10.358,17.939s0,.01.006.015h0a6.642,6.642,0,0,0,9.068,2.429,6.577,6.577,0,0,0,2.411-2.445l.019.011,4.224-7.317,4.207,7.287c.006.011.009.025.015.036l0,0a6.641,6.641,0,0,0,9.067,2.429,6.555,6.555,0,0,0,2.4-2.447l.025.014,10.364-17.949A6.6,6.6,0,0,0,568.2,552.306Zm-42.473,16.349a6.68,6.68,0,0,0-.558,1.256l-7.895-13.673a4.425,4.425,0,1,1,7.665-4.426h0l5.255,9.1Zm12.052,1.253a6.669,6.669,0,0,0-.557-1.249l-1.277-2.213-1.277,2.211.639,1.107a4.426,4.426,0,0,1-7.667,4.426h0a4.445,4.445,0,0,1,0-4.429l3.832-6.638,1.918,3.322,1.276-2.211-1.918-3.322,2.392-4.143a6.709,6.709,0,0,0,.557,1.254l4.471,7.743Zm7.894-1.249a6.694,6.694,0,0,0-.556,1.25l-2.393-4.144,1.916-3.32-1.277-2.211-1.916,3.319-3.833-6.638a4.425,4.425,0,1,1,7.665-4.426h0l0,.005a4.431,4.431,0,0,1,0,4.416l-.641,1.111,1.277,2.211,1.279-2.215a6.663,6.663,0,0,0,.556-1.249l2.393,4.144Zm19.947-12.421-7.892,13.669a6.644,6.644,0,0,0-.557-1.248l-1.278-2.213-1.277,2.212.64,1.108a4.426,4.426,0,0,1-7.667,4.426h0a4.432,4.432,0,0,1,0-4.424l3.834-6.641,1.917,3.32,1.277-2.212-1.917-3.321,5.254-9.1a4.426,4.426,0,0,1,7.667,4.426Z" transform="translate(-514.463 -547.386)" fill="#0000ef"/>
      <g id="Group_1853" data-name="Group 1853" transform="translate(5.535 5.534)">
        <path id="Path_1728" data-name="Path 1728" d="M535.177,566.585a1.106,1.106,0,1,0-1.914,1.106l6.853,11.868,1.277-2.212Z" transform="translate(-533.113 -566.031)" fill="#00dee6"/>
        <path id="Path_1729" data-name="Path 1729" d="M570.982,592.9l-1.277-2.212-5.5,9.53-1.917-3.32-1.277,2.212,2.237,3.874a1.151,1.151,0,0,0,1.914,0Z" transform="translate(-552.729 -583.37)" fill="#00dee6"/>
        <path id="Path_1730" data-name="Path 1730" d="M598.762,568.97a1.151,1.151,0,0,0-1.915,0l-2.237,3.874,1.278,2.212,1.916-3.32,5.5,9.531,1.277-2.213Z" transform="translate(-576.359 -567.738)" fill="#00dee6"/>
        <path id="Path_1731" data-name="Path 1731" d="M642.332,566.186a1.108,1.108,0,0,0-1.51.4l-9.407,16.294-1.917-3.32-1.277,2.212,2.237,3.874a1.1,1.1,0,0,0,1.915,0L642.736,567.7A1.1,1.1,0,0,0,642.332,566.186Z" transform="translate(-599.995 -566.036)" fill="#00dee6"/>
      </g>
    </g>
    <g id="Group_1855" data-name="Group 1855" transform="translate(583.932 556.32)">
      <path id="Path_1732" data-name="Path 1732" d="M852.475,587.023a3.076,3.076,0,0,0,.33,1.275,3.139,3.139,0,0,0,.82,1.006,3.848,3.848,0,0,0,1.2.661,4.274,4.274,0,0,0,1.432.236,4.123,4.123,0,0,0,2.267-.517,3.108,3.108,0,0,0,1.132-1.245l3.4,1.89a6.84,6.84,0,0,1-.786,1.242,5.494,5.494,0,0,1-1.306,1.181,7.326,7.326,0,0,1-1.951.881,9.358,9.358,0,0,1-2.689.346,8.772,8.772,0,0,1-3.211-.566,7.142,7.142,0,0,1-2.5-1.636,7.429,7.429,0,0,1-1.636-2.612,9.863,9.863,0,0,1-.581-3.493v-.19a8.446,8.446,0,0,1,.615-3.273,7.394,7.394,0,0,1,1.682-2.517,7.751,7.751,0,0,1,2.5-1.621,8.093,8.093,0,0,1,3.068-.581,7.791,7.791,0,0,1,3.462.709,7.467,7.467,0,0,1,2.392,1.793,7.108,7.108,0,0,1,1.383,2.392,7.884,7.884,0,0,1,.44,2.533v2.108Zm3.747-5.947a3.754,3.754,0,0,0-2.456.771,3.525,3.525,0,0,0-1.227,1.777H859.9a2.79,2.79,0,0,0-1.178-1.823A4.124,4.124,0,0,0,856.221,581.077Z" transform="translate(-818.752 -577.489)" fill="#0000ef"/>
      <path id="Path_1733" data-name="Path 1733" d="M920.48,591.272a4.067,4.067,0,0,1-1.762,2.092,5.462,5.462,0,0,1-2.643.615,6.673,6.673,0,0,1-2.661-.536,6.312,6.312,0,0,1-2.187-1.572,7.661,7.661,0,0,1-1.493-2.517,9.578,9.578,0,0,1-.551-3.367v-.5a9.776,9.776,0,0,1,.533-3.334,7.777,7.777,0,0,1,1.45-2.517,6.161,6.161,0,0,1,4.72-2.141,5.549,5.549,0,0,1,2.689.566,3.959,3.959,0,0,1,1.621,1.762h.568v-1.888h3.965v10.889c0,.63.281.942.85.942h.6v3.777h-2.707a2.463,2.463,0,0,1-1.747-.63,2.131,2.131,0,0,1-.676-1.636Zm-3.524-1.071a3.549,3.549,0,0,0,2.768-1.147,4.5,4.5,0,0,0,1.04-3.132v-.376a4.5,4.5,0,0,0-1.04-3.132,3.916,3.916,0,0,0-5.539,0,4.5,4.5,0,0,0-1.037,3.132v.376a4.5,4.5,0,0,0,1.037,3.132A3.553,3.553,0,0,0,916.956,590.2Z" transform="translate(-861.507 -577.489)" fill="#0000ef"/>
      <path id="Path_1734" data-name="Path 1734" d="M1040.291,580.2h.566a3.8,3.8,0,0,1,1.5-2,4.42,4.42,0,0,1,2.533-.709,4.969,4.969,0,0,1,3.744,1.465,6.171,6.171,0,0,1,1.416,4.451v.694l-4.09.377v-.44a3.062,3.062,0,0,0-.661-2.062,2.474,2.474,0,0,0-1.982-.771,2.552,2.552,0,0,0-2.077.912,4,4,0,0,0-.755,2.612v8.812h-3.967V582.649c0-.63-.281-.942-.85-.942h-.6v-3.778h2.8a2.463,2.463,0,0,1,1.746.63A2.132,2.132,0,0,1,1040.291,580.2Z" transform="translate(-950.03 -577.489)" fill="#0000ef"/>
      <path id="Path_1735" data-name="Path 1735" d="M973.675,578.976l4.073,13.71a2.671,2.671,0,0,0,2.561,1.91h2.4a2.671,2.671,0,0,0,2.561-1.91l4.073-13.71h-4.1l-3.448,12.452h-.569l-3.448-12.452Z" transform="translate(-906.858 -578.534)" fill="#0000ef"/>
      <path id="Path_1736" data-name="Path 1736" d="M768.675,591.509h.569l2.854-12.452h4.191l-3.557,13.73a2.524,2.524,0,0,1-2.443,1.891h-2.928a2.523,2.523,0,0,1-2.467-2l-2.151-10.049h-.659l-2.15,10.049a2.524,2.524,0,0,1-2.468,2h-2.928a2.523,2.523,0,0,1-2.443-1.891l-3.557-13.73h4.19l2.854,12.452h.569l2.595-10.857a2.077,2.077,0,0,1,2.02-1.595h3.294a2.077,2.077,0,0,1,2.021,1.595Z" transform="translate(-748.537 -578.592)" fill="#0000ef"/>
    </g>
  </g>
</svg>
